<!DOCTYPE svg PUBLIC "-//W3C//DTD SVG 20000303 Stylable//EN" "http://www.w3.org/TR/2000/03/WD-SVG-20000303/DTD/svg-20000303-stylable.dtd"[]><svg xmlns="http://www.w3.org/2000/svg" width="64px" height="64px" viewBox="0 0 999 999"><path style="fill:#ccc" d="M0,0 l999,0 0,999 -999,0 0,-999z" /><path style="fill:#c7c7c7" d="M0,709 l999,-418 0,708 -999,0 0,-290z" /><path style="fill:#c2c2c2" d="M0,751 l999,-418 0,666 -999,0 0,-248z" /><path style="fill:#bdbdbd" d="M0,813 l999,-418 0,604 -999,0 0,-186z" /><path style="fill:none;stroke:#4c4c4c;stroke-width:2" d="M0,0 l999,0 0,999 -999,0 0,-999" /><path style="fill:#7f7f7f;stroke:#4c4c4c;stroke-width:2" d="M675,925 l-116,32 -120,0 -116,-32 -104,-60 -86,-84 -61,-106 -31,-116 0,-120 32,-118 60,-104 84,-84 106,-61 116,-31 120,0 118,31 104,61 84,84 61,104 31,118 0,120 -31,116 -61,106 -84,84 -106,60z" /><path style="fill:#191919" d="M667,907 l-110,29 -116,0 -110,-29 -100,-58 -82,-82 -58,-100 -29,-110 1,-116 28,-112 58,-98 82,-82 100,-58 110,-29 116,0 110,29 100,58 82,82 58,100 29,110 0,116 -29,110 -58,100 -82,82 -100,58z" /><path style="fill:#b2b2b2" d="M569,915 l0,-346 -140,0 0,346 140,0z" /><path style="fill:#ccc" d="M569,915 l-6,-10 -6,-10 -6,-11 -5,-10 -5,-10 -4,-11 -4,-11 -4,-11 -3,-11 -2,-11 -3,-11 -1,-11 -2,-11 -1,-12 0,-11 -1,-11 1,-12 0,-11 1,-11 2,-11 1,-12 3,-11 2,-11 3,-11 4,-11 4,-10 4,-11 5,-11 5,-10 6,-10 6,-10 6,-10 -9,0 -8,0 -9,0 -9,0 -9,0 -8,0 -9,0 -9,0 -9,0 -9,0 -8,0 -9,0 -9,0 -9,0 -8,0 -9,0 -6,10 -6,10 -6,10 -4,10 -5,11 -4,11 -4,10 -3,11 -3,11 -3,11 -2,11 -2,12 -1,11 -1,11 -1,11 0,12 0,11 1,11 1,12 1,11 2,11 2,11 3,11 3,11 3,11 4,11 4,11 5,10 4,10 6,11 6,10 6,10 9,0 8,0 9,0 9,0 9,0 8,0 9,0 9,0 9,0 9,0 8,0 9,0 9,0 9,0 8,0 9,0z" /><path style="fill:none;stroke:#4c4c4c;stroke-width:2" d="M569,915 l0,-346 -140,0 -6,10 -6,10 -6,10 -4,10 -5,11 -4,11 -4,10 -3,11 -3,11 -3,11 -2,11 -2,12 -1,11 -1,11 -1,11 0,12 0,11 1,11 1,12 1,11 2,11 2,11 3,11 3,11 3,11 4,11 4,11 5,10 4,10 6,11 6,10 6,10 140,0" /><path style="fill:#b2b2b2" d="M895,647 l-302,-174 -68,120 300,174 70,-120z" /><path style="fill:#ccc" d="M895,647 l-12,0 -12,0 -12,0 -11,-1 -12,-1 -11,-2 -12,-2 -11,-2 -11,-3 -11,-4 -11,-3 -10,-4 -11,-5 -10,-5 -10,-5 -10,-5 -10,-6 -10,-6 -9,-7 -9,-7 -9,-7 -9,-8 -8,-8 -8,-7 -8,-9 -7,-9 -7,-9 -7,-9 -7,-10 -6,-9 -6,-11 -5,-10 -4,7 -5,8 -4,8 -4,7 -4,8 -5,7 -4,7 -4,8 -4,7 -5,8 -4,8 -4,7 -4,7 -5,8 -4,7 -4,8 5,10 6,11 6,10 6,9 7,9 7,10 8,8 7,9 8,8 8,8 9,8 9,7 9,7 9,6 10,7 10,5 9,6 11,5 10,5 11,4 10,4 11,4 11,3 11,3 11,2 12,2 11,2 11,1 12,1 11,0 12,0 12,0 4,-8 4,-7 5,-8 4,-7 4,-8 5,-7 4,-8 5,-7 4,-8 4,-7 5,-8 4,-7 4,-8 5,-7 4,-8 5,-7z" /><path style="fill:none;stroke:#4c4c4c;stroke-width:2" d="M895,647 l-302,-174 -68,120 5,10 6,11 6,10 6,9 7,9 7,10 8,8 7,9 8,8 8,8 9,8 9,7 9,7 9,6 10,7 10,5 9,6 11,5 10,5 11,4 10,4 11,4 11,3 11,3 11,2 12,2 11,2 11,1 12,1 11,0 12,0 12,0 70,-120" /><path style="fill:#b2b2b2" d="M825,231 l-300,174 68,120 302,-174 -70,-120z" /><path style="fill:#ccc" d="M825,231 l-6,11 -6,10 -6,10 -6,9 -7,10 -7,9 -8,8 -7,9 -9,8 -8,8 -8,8 -9,7 -9,7 -9,6 -10,6 -9,6 -10,6 -11,5 -10,5 -10,4 -11,4 -11,4 -11,3 -11,3 -11,3 -11,2 -11,2 -12,1 -12,0 -11,1 -11,0 -12,-1 4,8 4,7 5,8 4,7 4,7 4,8 5,8 4,7 4,8 4,7 5,7 4,8 4,7 4,8 5,8 4,7 11,0 12,0 12,0 11,0 12,-2 12,-2 11,-2 11,-2 11,-3 12,-3 10,-4 11,-4 10,-5 11,-4 10,-6 10,-5 10,-6 9,-6 9,-7 10,-7 9,-7 8,-8 8,-7 9,-8 7,-9 8,-9 7,-9 7,-9 6,-10 6,-9 6,-10 6,-11 -5,-7 -4,-8 -5,-7 -4,-8 -4,-7 -5,-8 -4,-7 -4,-8 -5,-7 -4,-8 -5,-7 -4,-8 -4,-7 -5,-8 -4,-7 -4,-8z" /><path style="fill:none;stroke:#4c4c4c;stroke-width:2" d="M825,231 l-300,174 68,120 11,0 12,0 12,0 11,0 12,-2 12,-2 11,-2 11,-2 11,-3 12,-3 10,-4 11,-4 10,-5 11,-4 10,-6 10,-5 10,-6 9,-6 9,-7 10,-7 9,-7 8,-8 8,-7 9,-8 7,-9 8,-9 7,-9 7,-9 6,-10 6,-9 6,-10 6,-11 -70,-120" /><path style="fill:#b2b2b2" d="M429,83 l0,346 140,0 0,-346 -140,0z" /><path style="fill:#ccc" d="M429,83 l6,10 6,10 6,11 5,10 4,10 5,11 4,11 3,11 3,11 3,11 2,11 2,11 2,11 0,12 1,11 0,11 0,12 -1,11 0,11 -2,11 -2,12 -2,11 -3,11 -3,11 -3,11 -4,10 -5,11 -4,11 -5,10 -6,10 -6,10 -6,10 9,0 8,0 9,0 9,0 9,0 8,0 9,0 9,0 9,0 9,0 8,0 9,0 9,0 9,0 8,0 9,0 6,-10 6,-10 6,-10 4,-10 5,-11 4,-11 4,-10 3,-11 3,-11 3,-11 2,-11 2,-12 1,-11 1,-11 1,-11 0,-12 0,-11 -1,-11 -1,-12 -1,-11 -2,-11 -2,-11 -3,-11 -3,-11 -3,-11 -4,-11 -4,-11 -5,-10 -4,-10 -6,-11 -6,-10 -6,-10 -9,0 -8,0 -9,0 -9,0 -9,0 -8,0 -9,0 -9,0 -9,0 -9,0 -8,0 -9,0 -9,0 -9,0 -8,0 -9,0z" /><path style="fill:none;stroke:#4c4c4c;stroke-width:2" d="M429,83 l0,346 140,0 6,-10 6,-10 6,-10 4,-10 5,-11 4,-11 4,-10 3,-11 3,-11 3,-11 2,-11 2,-12 1,-11 1,-11 1,-11 0,-12 0,-11 -1,-11 -1,-12 -1,-11 -2,-11 -2,-11 -3,-11 -3,-11 -3,-11 -4,-11 -4,-11 -5,-10 -4,-10 -6,-11 -6,-10 -6,-10 -140,0" /><path style="fill:#b2b2b2" d="M103,351 l302,174 68,-120 -300,-174 -70,120z" /><path style="fill:#ccc" d="M103,351 l12,0 12,0 12,0 11,1 12,1 11,2 12,2 11,2 11,3 11,4 11,3 10,4 11,5 10,5 10,5 10,5 10,6 10,6 9,7 9,7 9,7 9,8 8,8 8,7 8,9 7,9 7,9 7,9 7,10 6,9 6,11 5,10 4,-7 5,-8 4,-8 4,-7 4,-8 5,-7 4,-7 4,-8 4,-7 5,-8 4,-8 4,-7 4,-7 5,-8 4,-7 4,-8 -5,-10 -6,-11 -6,-10 -6,-9 -7,-9 -7,-10 -8,-8 -7,-9 -8,-8 -8,-8 -9,-8 -9,-7 -9,-7 -9,-6 -10,-7 -10,-5 -9,-6 -11,-5 -10,-5 -11,-4 -10,-4 -11,-4 -11,-3 -11,-3 -11,-2 -12,-2 -11,-2 -11,-1 -12,-1 -11,0 -12,0 -12,0 -4,8 -4,7 -5,8 -4,7 -4,8 -5,7 -4,8 -5,7 -4,8 -4,7 -5,8 -4,7 -4,8 -5,7 -4,8 -5,7z" /><path style="fill:none;stroke:#4c4c4c;stroke-width:2" d="M103,351 l302,174 68,-120 -5,-10 -6,-11 -6,-10 -6,-9 -7,-9 -7,-10 -8,-8 -7,-9 -8,-8 -8,-8 -9,-8 -9,-7 -9,-7 -9,-6 -10,-7 -10,-5 -9,-6 -11,-5 -10,-5 -11,-4 -10,-4 -11,-4 -11,-3 -11,-3 -11,-2 -12,-2 -11,-2 -11,-1 -12,-1 -11,0 -12,0 -12,0 -70,120" /><path style="fill:#b2b2b2" d="M173,767 l300,-174 -68,-120 -302,174 70,120z" /><path style="fill:#ccc" d="M173,767 l6,-11 6,-10 6,-10 6,-9 7,-10 7,-9 8,-8 7,-9 9,-8 8,-8 8,-8 9,-7 9,-7 9,-6 10,-6 10,-6 9,-6 11,-5 10,-5 10,-4 11,-4 11,-4 11,-3 11,-3 11,-3 11,-2 11,-2 12,-1 12,0 11,-1 11,0 12,1 -4,-8 -4,-7 -5,-8 -4,-7 -4,-7 -4,-8 -5,-8 -4,-7 -4,-8 -4,-7 -5,-7 -4,-8 -4,-7 -4,-8 -5,-8 -4,-7 -11,0 -12,0 -12,0 -11,0 -12,2 -12,2 -11,2 -11,2 -11,3 -12,3 -10,4 -11,4 -10,5 -11,4 -10,6 -10,5 -10,6 -9,6 -9,7 -10,7 -9,7 -8,8 -8,7 -9,8 -7,9 -8,9 -7,9 -7,9 -6,10 -6,9 -6,10 -6,11 5,7 4,8 5,7 4,8 4,7 5,8 4,7 4,8 5,7 4,8 5,7 4,8 4,7 5,8 4,7 4,8z" /><path style="fill:none;stroke:#4c4c4c;stroke-width:2" d="M173,767 l300,-174 -68,-120 -11,0 -12,0 -12,0 -11,0 -12,2 -12,2 -11,2 -11,2 -11,3 -12,3 -10,4 -11,4 -10,5 -11,4 -10,6 -10,5 -10,6 -9,6 -9,7 -10,7 -9,7 -8,8 -8,7 -9,8 -7,9 -8,9 -7,9 -7,9 -6,10 -6,9 -6,10 -6,11 70,120" /><circle style="fill:#666;stroke:#4c4c4c;stroke-width:2" cx="499" cy="499" r="122" /><circle style="fill:#e5e5e5" cx="499" cy="499" r="104" /><circle style="fill:#7f7f7f" cx="499" cy="499" r="34" /><path style="fill:#000" d="M62,973 l62,0 0,19 -62,0 0,-19z" /><path style="fill:#000" d="M145,973 l62,0 0,19 -62,0 0,-19z" /><path style="fill:#000" d="M291,973 l62,0 0,19 -62,0 0,-19z" /><path style="fill:#000" d="M936,992 l-62,0 0,-19 62,0 0,19z" /><path style="fill:#000" d="M853,992 l-62,0 0,-19 62,0 0,19z" /><path style="fill:#000" d="M707,992 l-62,0 0,-19 62,0 0,19z" /></svg>