<?xml version="1.0" encoding="iso-8859-1"?>
<!-- Generator: Adobe Illustrator 19.0.0, SVG Export Plug-In . SVG Version: 6.00 Build 0)  -->
<svg version="1.1" id="Layer_1" xmlns="http://www.w3.org/2000/svg" xmlns:xlink="http://www.w3.org/1999/xlink" x="0px" y="0px"
	 viewBox="0 0 512.001 512.001" style="enable-background:new 0 0 512.001 512.001;" xml:space="preserve">
<g>
	<path style="fill:#CFDCE5;" d="M273.088,365.939h-95.841c-13.534,0-24.507-10.972-24.507-24.507v-1.649
		c0-13.534,10.972-24.507,24.507-24.507H334.5c13.534,0,24.507,10.972,24.507,24.507v1.649c0,13.534-10.972,24.507-24.507,24.507
		h-33.405"/>
	<path style="fill:#CFDCE5;" d="M334.501,365.939c13.534,0,24.507,10.972,24.507,24.507v1.649c0,13.534-10.972,24.507-24.507,24.507
		H241.58h-29.175h-35.156c-13.534,0-24.507-10.972-24.507-24.507v-1.649c0-13.534,10.972-24.507,24.507-24.507"/>
</g>
<g>
	<path style="fill:#BAC6CC;" d="M187.752,392.094v-1.649c0-13.534,10.972-24.507,24.507-24.507h-35.009
		c-13.534,0-24.507,10.972-24.507,24.507v1.649c0,13.534,10.972,24.507,24.507,24.507h35.009
		C198.724,416.6,187.752,405.628,187.752,392.094z"/>
	<path style="fill:#BAC6CC;" d="M187.752,341.432v-1.649c0-13.534,10.972-24.507,24.507-24.507h-35.009
		c-13.534,0-24.507,10.972-24.507,24.507v1.649c0,13.534,10.972,24.507,24.507,24.507h35.009
		C198.724,365.939,187.752,354.966,187.752,341.432z"/>
</g>
<path style="fill:#FCD577;" d="M348.71,315.277c6.444-30.839,17.942-60.567,33.794-88.143
	c12.296-21.388,19.328-46.187,19.328-72.628c0-82.498-68.445-149.012-151.647-145.85c-76.8,2.919-138.626,65.883-140.235,142.72
	c-0.583,27.807,6.615,53.889,19.564,76.223c15.869,27.372,27.24,56.972,33.597,87.677"/>
<path style="fill:#EAC36E;" d="M171.523,227.599c-12.948-22.333-20.146-48.416-19.564-76.223
	c1.5-71.669,55.395-131.261,124.961-141.322c-8.688-1.255-17.623-1.744-26.735-1.398c-76.8,2.919-138.626,65.883-140.235,142.72
	c-0.583,27.807,6.615,53.889,19.564,76.223c15.869,27.372,27.24,56.972,33.597,87.677h42.009
	C198.764,284.571,187.392,254.97,171.523,227.599z"/>
<path style="fill:#415E72;" d="M285.689,247.452h-59.627c-9.714,0-17.588,7.875-17.588,17.588v50.236h94.805v-50.236
	C303.277,255.327,295.402,247.452,285.689,247.452z"/>
<path style="fill:#CFDCE5;" d="M321.625,416.6c13.534,0,24.507,10.972,24.507,24.507v1.649c0,13.534-10.972,24.507-24.507,24.507
	h-131.5c-13.534,0-24.507-10.972-24.507-24.507v-1.649c0-13.534,10.972-24.507,24.507-24.507H321.625z"/>
<path style="fill:#BAC6CC;" d="M200.628,442.756v-1.649c0-13.534,10.972-24.507,24.507-24.507h-35.009
	c-13.534,0-24.507,10.972-24.507,24.507v1.649c0,13.534,10.972,24.507,24.507,24.507h35.009
	C211.6,467.262,200.628,456.29,200.628,442.756z"/>
<path style="fill:#415E72;" d="M199.026,467.262c10,21.375,31.688,36.187,56.85,36.187s46.85-14.812,56.85-36.187"/>
<path d="M410.508,154.505c0-35.513-12.347-70.195-34.769-97.654c-2.988-3.657-8.374-4.202-12.032-1.215
	c-3.657,2.987-4.202,8.373-1.215,12.032c19.935,24.415,30.914,55.255,30.914,86.838c0,24.024-6.29,47.665-18.19,68.366
	c-15.458,26.887-26.702,55.389-33.467,84.804c-2.552-0.616-5.21-0.951-7.949-0.951H217.148v-41.271c0-5.213,4.24-9.453,9.453-9.453
	h3.344v34.957c0,4.722,3.828,8.551,8.551,8.551s8.551-3.828,8.551-8.551v-34.957h17.909v34.957c0,4.722,3.828,8.551,8.551,8.551
	c4.722,0,8.551-3.828,8.551-8.551v-34.957h3.344c5.213,0,9.453,4.24,9.453,9.453v20.646c0,4.722,3.828,8.551,8.551,8.551
	c4.722,0,8.551-3.828,8.551-8.551v-20.646c0-14.642-11.912-26.554-26.554-26.554h-3.344v-34.293l32.65-55.168
	c2.404-4.063,1.06-9.309-3.004-11.713c-4.063-2.406-9.309-1.06-11.713,3.003l-33.843,57.182c-0.78,1.319-1.191,2.823-1.191,4.355
	v36.634h-17.909v-36.634c0-1.532-0.412-3.036-1.191-4.355l-33.843-57.182c-2.404-4.063-7.649-5.409-11.713-3.003
	c-4.064,2.404-5.409,7.649-3.004,11.713l32.65,55.168v34.293h-3.344c-14.642,0-26.554,11.912-26.554,26.554v41.271h-21.848
	c-2.71,0-5.343,0.329-7.87,0.933c-6.724-29.471-17.911-57.818-33.292-84.348c-12.574-21.687-18.941-46.499-18.412-71.755
	c0.732-34.98,14.751-68.102,39.473-93.267c24.725-25.169,57.589-39.761,92.539-41.089c32.38-1.223,64.22,8.992,89.661,28.784
	c3.728,2.9,9.1,2.23,11.998-1.498c2.899-3.727,2.229-9.099-1.498-11.998C322.182,10.227,286.384-1.27,249.986,0.112
	c-39.328,1.495-76.295,17.9-104.089,46.194c-27.789,28.287-43.546,65.539-44.371,104.894c-0.594,28.389,6.569,56.291,20.716,80.69
	c15.347,26.469,26.259,54.845,32.453,84.351c-6.391,6.166-10.378,14.809-10.378,24.369c0,9.945,4.308,18.903,11.156,25.106
	c-6.836,6.061-11.156,14.899-11.156,24.731v0.824c0,13.404,7.825,25.013,19.145,30.505c-3.938,5.441-6.268,12.118-6.268,19.334
	v0.824c0,18.683,15.2,33.882,33.882,33.882h2.884c12.567,22.148,36.345,36.187,62.042,36.187c13.819,0,27.225-3.962,38.767-11.457
	c3.961-2.571,5.086-7.867,2.515-11.829c-2.571-3.962-7.869-5.087-11.827-2.515c-8.764,5.69-18.948,8.698-29.453,8.698
	c-16.033,0-31.081-7.195-41.246-19.085h106.17c18.682,0,33.882-15.2,33.882-33.882v-0.824c0-7.215-2.33-13.892-6.268-19.334
	c11.32-5.491,19.145-17.1,19.145-30.505v-0.824c0-9.832-4.32-18.67-11.156-24.731c6.848-6.203,11.156-15.161,11.156-25.106
	c0-9.531-3.962-18.149-10.318-24.312c6.238-29.461,17.226-58.023,32.678-84.901C403.432,208.104,410.508,181.517,410.508,154.505z
	 M334.626,374.49c8.798,0,15.956,7.158,15.956,15.956v0.824c0,9.253-7.528,16.78-16.78,16.78h-92.096
	c-4.722,0-8.551,3.828-8.551,8.551c0,4.722,3.828,8.551,8.551,8.551h80.044c8.798,0,15.956,7.158,15.956,15.956v0.824
	c0,9.253-7.528,16.78-16.78,16.78H191.075c-9.252,0-16.78-7.528-16.78-16.78v-0.824c0-8.798,7.158-15.956,15.956-15.956h22.28
	c4.722,0,8.551-3.828,8.551-8.551c0-4.722-3.828-8.551-8.551-8.551h-34.332c-9.253,0-16.78-7.528-16.78-16.78v-0.824
	c0-8.798,7.158-15.956,15.956-15.956c0.093,0,0.184-0.011,0.276-0.014c0.184,0.002,0.365,0.014,0.548,0.014h95.015
	c4.722,0,8.551-3.828,8.551-8.551c0-4.722-3.828-8.551-8.551-8.551h-95.015c-9.253,0-16.78-7.528-16.78-16.78
	s7.528-16.78,16.78-16.78h155.604c9.253,0,16.78,7.528,16.78,16.78c0,9.253-7.528,16.78-16.78,16.78h-32.581
	c-4.722,0-8.551,3.828-8.551,8.551c0,4.722,3.828,8.551,8.551,8.551h32.581c0.184,0,0.365-0.011,0.548-0.014
	C334.443,374.478,334.533,374.49,334.626,374.49z"/>
<g>
</g>
<g>
</g>
<g>
</g>
<g>
</g>
<g>
</g>
<g>
</g>
<g>
</g>
<g>
</g>
<g>
</g>
<g>
</g>
<g>
</g>
<g>
</g>
<g>
</g>
<g>
</g>
<g>
</g>
</svg>
